<svg width="40" height="41" viewBox="0 0 40 41" fill="none" xmlns="http://www.w3.org/2000/svg">
<g clip-path="url(#clip0_1_44)">
<path d="M22.7005 39.9926H16.2824C15.2103 39.9926 14.3383 39.1411 14.3383 38.0943V23.9588H10.5938C9.52172 23.9588 8.64966 23.107 8.64966 22.0605V16.0034C8.64966 14.9566 9.52172 14.1051 10.5938 14.1051H14.3383V11.0719C14.3383 8.06439 15.3054 5.50564 17.1349 3.67272C18.9726 1.83144 21.5407 0.858398 24.5618 0.858398L29.4566 0.866161C30.5268 0.867953 31.3973 1.71948 31.3973 2.76447V8.38834C31.3973 9.43513 30.5256 10.2866 29.4538 10.2866L26.1582 10.2878C25.1531 10.2878 24.8972 10.4846 24.8425 10.5449C24.7523 10.6449 24.6449 10.9277 24.6449 11.7084V14.1048H29.2062C29.5495 14.1048 29.8822 14.1875 30.1681 14.3433C30.7849 14.6798 31.1683 15.3161 31.1683 16.0037L31.1659 22.0608C31.1659 23.107 30.2938 23.9585 29.2218 23.9585H24.6449V38.0943C24.6449 39.1411 23.7726 39.9926 22.7005 39.9926ZM16.6878 37.6984H22.2951V22.9317C22.2951 22.2327 22.8776 21.6643 23.5931 21.6643H28.8163L28.8184 16.3993H23.5928C22.8773 16.3993 22.2951 15.8308 22.2951 15.1318V11.7084C22.2951 10.8121 22.3883 9.79282 23.0812 9.02668C23.9184 8.10052 25.2378 7.99363 26.1576 7.99363L29.0478 7.99244V3.15978L24.5599 3.15261C19.7049 3.15261 16.6878 6.18728 16.6878 11.0719V15.1318C16.6878 15.8305 16.1056 16.3993 15.3901 16.3993H10.9992V21.6643H15.3901C16.1056 21.6643 16.6878 22.2327 16.6878 22.9317V37.6984ZM29.452 3.16038H29.4523H29.452Z" fill="white"/>
</g>
<defs>
<clipPath id="clip0_1_44">
<rect width="40" height="39.1342" fill="white" transform="translate(0 0.935059)"/>
</clipPath>
</defs>
</svg>
