<svg width="98" height="99" viewBox="0 0 98 99" fill="none" xmlns="http://www.w3.org/2000/svg">
<path d="M96.1037 49.3813C96.1037 75.8448 74.9461 97.2626 48.8897 97.2626C22.8333 97.2626 1.67566 75.8448 1.67566 49.3813C1.67566 22.9179 22.8333 1.5 48.8897 1.5C74.9461 1.5 96.1037 22.9179 96.1037 49.3813Z" fill="#2C7250" stroke="white" stroke-width="3"/>
<g clip-path="url(#clip0_2_32)">
<path d="M51.2362 66.0101L46.4715 61.4201L42.0323 57.1601L47.9512 56.2901L54.61 55.3301L55.4682 53.6201H55.409C54.7298 53.6204 54.0711 53.3838 53.5435 52.9501C53.016 52.5164 52.6517 51.9119 52.5117 51.2381C52.5088 49.3871 54.8763 49.9871 56.7408 46.8671C56.9776 46.8071 65.0865 24.9971 48.5135 24.9971C31.9405 24.9971 40.0495 46.8071 40.0495 46.8071C41.9139 49.8071 44.3111 49.3571 44.2815 51.1571C44.2519 52.9571 42.0915 53.5571 40.0495 53.7671C36.6757 54.1571 33.7162 53.3771 30.7568 59.0471C28.9811 62.3171 28.2412 72.9971 28.2412 72.9971H50.0228V72.4871L51.2362 66.0101ZM59.5227 73.0001H61.18L60.3513 72.5801L59.5227 73.0001Z" fill="white"/>
<path d="M60.3513 69.19L67.6612 73L66.2702 64.93L72.1892 59.23L64.0211 58.06L60.3513 50.71L56.6816 58.06L48.5135 59.23L54.4324 64.93L53.0415 73L60.3513 69.19Z" fill="white"/>
</g>
<defs>
<clipPath id="clip0_2_32">
<rect width="47.3514" height="48" fill="white" transform="translate(24.8378 25)"/>
</clipPath>
</defs>
</svg>
