<svg width="71" height="70" viewBox="0 0 71 70" fill="none" xmlns="http://www.w3.org/2000/svg">
<g id="Frame">
<path id="Vector" d="M59.9918 59.7917C59.45 60.3341 58.8066 60.7643 58.0985 61.0579C57.3903 61.3514 56.6313 61.5025 55.8647 61.5025C55.0981 61.5025 54.339 61.3514 53.6309 61.0579C52.9227 60.7643 52.2793 60.3341 51.7376 59.7917L36.5418 44.5959C32.5275 46.6381 27.9236 47.2059 23.5334 46.2C19.6425 45.2935 16.1374 43.1809 13.5185 40.1639C10.8996 37.147 9.30071 33.3797 8.95009 29.4C8.62382 25.9155 9.2806 22.4093 10.8459 19.2792L23.5334 32.0834L30.8251 30.625L32.2834 23.3334L19.4793 10.7334C22.6007 9.1379 26.1073 8.45073 29.6001 8.75002C33.5798 9.10064 37.347 10.6995 40.364 13.3184C43.381 15.9374 45.4936 19.4424 46.4001 23.3334C47.3778 27.6865 46.8107 32.2442 44.7959 36.225L59.9918 51.4209C60.5518 51.9646 60.9971 52.6152 61.3011 53.3341C61.6052 54.053 61.7618 54.8257 61.7618 55.6063C61.7618 56.3869 61.6052 57.1595 61.3011 57.8784C60.9971 58.5974 60.5518 59.248 59.9918 59.7917V59.7917Z" stroke="#2C7250" stroke-width="4" stroke-linecap="round" stroke-linejoin="round"/>
</g>
</svg>
