<svg width="70" height="70" viewBox="0 0 70 70" fill="none" xmlns="http://www.w3.org/2000/svg">
<g id="Frame">
<path id="Vector" d="M61.25 37.9167C61.2441 41.8355 60.3608 45.7033 58.665 49.2362C56.9692 52.7691 54.5039 55.8776 51.45 58.3334H18.55C15.091 55.5518 12.3939 51.9386 10.7107 47.8315C9.02746 43.7244 8.4132 39.2575 8.9253 34.8485C9.4374 30.4396 11.0591 26.2324 13.6389 22.6204C16.2186 19.0085 19.6722 16.1096 23.6766 14.195C27.681 12.2803 32.1056 11.4123 36.5366 11.6721C40.9676 11.9319 45.2604 13.3111 49.0136 15.6806C52.7668 18.0502 55.8579 21.3328 57.9978 25.2215C60.1378 29.1102 61.2567 33.4781 61.25 37.9167V37.9167Z" stroke="#2C7250" stroke-width="4" stroke-linecap="round" stroke-linejoin="round"/>
<path id="Vector_2" d="M46.6666 26.25L35 43.75M37.9166 43.75C37.9166 44.3269 37.7456 44.8908 37.4251 45.3704C37.1046 45.8501 36.6491 46.2239 36.1161 46.4446C35.5832 46.6654 34.9967 46.7232 34.431 46.6106C33.8652 46.4981 33.3455 46.2203 32.9376 45.8124C32.5297 45.4045 32.2519 44.8848 32.1394 44.319C32.0268 43.7532 32.0846 43.1668 32.3053 42.6338C32.5261 42.1009 32.8999 41.6454 33.3796 41.3249C33.8592 41.0044 34.4231 40.8333 35 40.8333C35.7735 40.8333 36.5154 41.1406 37.0624 41.6876C37.6094 42.2346 37.9166 42.9765 37.9166 43.75Z" stroke="#2C7250" stroke-width="4" stroke-linecap="round" stroke-linejoin="round"/>
</g>
</svg>
