<svg width="40" height="41" viewBox="0 0 40 41" fill="none" xmlns="http://www.w3.org/2000/svg">
<g clip-path="url(#clip0_1_41)">
<path d="M34.3186 6.49354C30.6546 2.90891 25.7843 0.935059 20.6024 0.935059C20.6021 0.935059 20.6009 0.935059 20.6006 0.935059C18.0377 0.935357 15.5402 1.42083 13.1778 2.37835C10.8151 3.33586 8.69843 4.72033 6.88599 6.49354C3.22236 10.0779 1.20484 14.8437 1.20484 19.9128C1.20484 22.9358 1.95038 25.94 3.36304 28.6167L0.102544 37.7297C-0.127254 38.3725 0.035405 39.0711 0.527959 39.5527C0.872502 39.8901 1.32599 40.0693 1.7923 40.0693C1.99219 40.0693 2.19422 40.0364 2.39136 39.9689L11.7059 36.7793C14.4418 38.1614 17.5125 38.8908 20.6024 38.8908C25.7837 38.8908 30.6546 36.9167 34.3186 33.3323C37.9822 29.748 40 24.9822 40 19.9131C40 14.8437 37.9825 10.0779 34.3186 6.49354ZM32.6596 31.7093C29.4391 34.8604 25.1569 36.5954 20.6024 36.5954C17.8162 36.5954 15.0482 35.9212 12.5977 34.6451C12.1533 34.414 11.6281 34.3743 11.1566 34.5359L2.6941 37.4335L5.65613 29.1541C5.82123 28.6922 5.78034 28.1784 5.54413 27.744C4.24012 25.3471 3.55072 22.639 3.55072 19.9128C3.55072 15.4569 5.32441 11.2674 8.54493 8.11657C11.7651 4.96606 16.0468 3.23077 20.6009 3.23017H20.6024C25.1572 3.23017 29.4391 4.96546 32.6596 8.11657C35.8804 11.2674 37.6541 15.4566 37.6541 19.9128C37.6541 24.3689 35.8804 28.5585 32.6596 31.7093Z" fill="white"/>
<path d="M27.8112 21.6083C26.9189 20.7353 25.4669 20.7353 24.5745 21.6083L23.5986 22.5631C21.1752 21.2712 19.2141 19.3526 17.8933 16.9816L18.8693 16.0268C19.7619 15.1538 19.7619 13.7332 18.8693 12.8602L16.2393 10.2871C15.3469 9.41407 13.8949 9.41407 13.0026 10.2871L10.8987 12.3454C9.69355 13.5245 9.63343 15.5515 10.7293 18.0532C11.6809 20.2253 13.4222 22.6127 15.6326 24.7752C17.843 26.9378 20.2832 28.6414 22.5033 29.5723C23.7182 30.0817 24.8233 30.3358 25.7781 30.3358C26.8331 30.3358 27.7047 30.0256 28.3374 29.4066L30.4412 27.348V27.3483C30.8737 26.9252 31.1117 26.363 31.1117 25.765C31.1117 25.1666 30.8737 24.6044 30.4412 24.1817L27.8112 21.6083ZM26.6784 27.7836C26.3345 28.1201 25.2767 28.238 23.4277 27.4629C21.4752 26.6443 19.2959 25.1132 17.2915 23.1522C15.2871 21.1912 13.7225 19.0594 12.8857 17.1491C12.0931 15.3401 12.2137 14.3049 12.5576 13.9685L14.6212 11.9495L17.1701 14.4435L15.9484 15.639C15.3961 16.1794 15.2627 16.9989 15.617 17.6785C17.2232 20.7597 19.7369 23.2191 22.8863 24.7904C23.5812 25.1371 24.4189 25.0069 24.9713 24.4662L26.1929 23.271L28.742 25.765L26.6784 27.7836Z" fill="white"/>
</g>
<defs>
<clipPath id="clip0_1_41">
<rect width="40" height="39.1342" fill="white" transform="translate(0 0.935059)"/>
</clipPath>
</defs>
</svg>
